# xmcd
#
# Track frame offsets: 
#        150
#        16833
#        36898
#        57729
#        74393
#        92796
#        113522
#        132691
#        150974
#        166085
#        188956
#        203873
#        226147
#        246207
#        264359
#        285278
#        307888
#
# Disc length: 4379 seconds
#
# Revision: 0
# Processed by: cddbd v1.4PL0 Copyright (c) Steve Scherf et al.
# Submitted via: ExactAudioCopy v0.95a3
#
DISCID=de111911
DTITLE=Various Artist - Euramerican LOVE SONGS_≈∑√¿…À∏–«È∏ËII
DYEAR=2003
DGENRE=Other
TTITLE0=Leo Sayer-More than I can say
TTITLE1=Steris wonder-Just call to say I love you
TTITLE2=Eric Clapton-Tears in heaven
TTITLE3=Rosson and Jerome-Unchained Melody
TTITLE4=Air Supply-All out of love
TTITLE5=Glenn Free-The one you love
TTITLE6=Bealin-Take my breath away
TTITLE7=Lionel Kichie-Say you say me
TTITLE8=Sterie-Because I love you
TTITLE9=George Michael-Careless Whisper
TTITLE10=Dan Fogelberg-Longer
TTITLE11=Julio LG Lesias-La Palona
TTITLE12=Richard Morx-Right here waiting
TTITLE13=Carpenters-Yesterday once more
TTITLE14=Btrbra Stresend-Casablance
TTITLE15=Michael Bolton-I said I love you lied
TTITLE16=Whitney Houston-I will always love you
EXTD=
EXTT0=
EXTT1=
EXTT2=
EXTT3=
EXTT4=
EXTT5=
EXTT6=
EXTT7=
EXTT8=
EXTT9=
EXTT10=
EXTT11=
EXTT12=
EXTT13=
EXTT14=
EXTT15=
EXTT16=
PLAYORDER=
